<?xml version="1.0" encoding="utf-8"?>
<!-- Generator: Adobe Illustrator 16.0.0, SVG Export Plug-In . SVG Version: 6.00 Build 0)  -->
<!DOCTYPE svg PUBLIC "-//W3C//DTD SVG 1.1//EN" "http://www.w3.org/Graphics/SVG/1.1/DTD/svg11.dtd">
<svg version="1.1" id="Layer_1" xmlns="http://www.w3.org/2000/svg" xmlns:xlink="http://www.w3.org/1999/xlink" x="0px" y="0px"
	 width="500px" height="500px" viewBox="0 0 500 500" enable-background="new 0 0 500 500" xml:space="preserve">
<g>
	<path fill="#010101" d="M250,104.417c33.673,0,61.068-23.421,61.068-52.208C311.068,23.421,283.673,0,250,0
		s-61.068,23.421-61.068,52.209C188.932,80.997,216.327,104.417,250,104.417z"/>
	<path fill="#010101" d="M354.092,264.572v-91.184c0-19.867-14.935-37.484-37.018-43.67l-0.103-0.028l-17.429-4.573
		c-2.75-0.722-5.688,0.522-6.676,2.84l-36.651,85.971c-2.114,4.959-10.318,4.959-12.433,0l-36.65-85.971
		c-0.798-1.872-2.865-3.047-5.081-3.047c-0.525,0-19.005,4.773-19.005,4.773c-22.265,6.343-37.14,23.99-37.14,43.943v90.944
		c0,0.902,0.31,1.787,0.888,2.541l38.241,49.752v125.888c0,2.556,2.424,4.628,5.414,4.628h119.095c2.989,0,5.413-2.072,5.413-4.628
		V316.863l38.24-49.752C353.783,266.357,354.092,265.475,354.092,264.572L354.092,264.572z"/>
	<path fill="#010101" d="M60.32,409.167c3.853-7.5-0.136-16.249-8.907-19.544c-8.782-3.301-19.008,0.116-22.86,7.614L1.469,449.96
		c-3.854,7.5,0.136,16.249,8.907,19.543l61.668,23.155c2.27,0.852,4.637,1.256,6.967,1.256c6.675,0,13.038-3.312,15.893-8.872
		c3.854-7.5-0.136-16.249-8.907-19.544l-23.323-8.756l103.133-34.356v-31.835l-115.73,38.554L60.32,409.167z"/>
	<path fill="#010101" d="M90.446,285.495c8.928-2.974,13.345-11.573,9.865-19.204c-3.479-7.635-13.54-11.418-22.462-8.434
		l-62.758,20.906c-8.928,2.974-13.345,11.573-9.865,19.205l24.455,53.652c2.672,5.863,9.226,9.451,16.169,9.451
		c2.095,0,4.226-0.324,6.293-1.016c8.929-2.973,13.345-11.572,9.866-19.203l-9.25-20.289l113.048,42.445v-32.396l-99.094-37.207
		L90.446,285.495L90.446,285.495z"/>
	<path fill="#010101" d="M470.32,405.221c-3.479-7.635-13.538-11.418-22.462-8.435c-8.929,2.974-13.345,11.572-9.865,19.204
		l9.249,20.291l-113.049-42.446v32.397l99.095,37.207l-23.732,7.905c-8.928,2.974-13.345,11.573-9.865,19.204
		c2.673,5.863,9.226,9.453,16.169,9.451c2.095,0,4.226-0.325,6.294-1.015l62.757-20.908c8.928-2.973,13.346-11.572,9.865-19.203
		L470.32,405.221L470.32,405.221z"/>
	<path fill="#010101" d="M489.625,287.335l-61.669-23.155c-8.783-3.297-19.007,0.117-22.86,7.615s0.136,16.249,8.906,19.543
		l23.322,8.756l-103.132,34.357v31.837l115.729-38.556L439.68,347.67c-3.853,7.5,0.136,16.249,8.906,19.544
		c2.271,0.852,4.638,1.256,6.968,1.256c6.676,0,13.038-3.312,15.893-8.872l27.085-52.723
		C502.385,299.381,498.395,290.63,489.625,287.335L489.625,287.335z"/>
	<path fill="#010101" d="M263.917,126.805c-1.47-1.37-3.623-2.061-5.8-2.061h-16.236c-2.176,0-4.329,0.69-5.802,2.061
		c-2.278,2.123-2.609,5.188-0.992,7.586l8.678,11.185l-4.063,29.301l8.001,18.195c0.779,1.83,3.806,1.83,4.587,0l8.002-18.195
		l-4.063-29.301l8.68-11.185C266.527,131.993,266.196,128.928,263.917,126.805z"/>
</g>
</svg>
