<?xml version="1.0" encoding="utf-8"?>
<!-- Generator: Adobe Illustrator 16.0.0, SVG Export Plug-In . SVG Version: 6.00 Build 0)  -->
<!DOCTYPE svg PUBLIC "-//W3C//DTD SVG 1.1//EN" "http://www.w3.org/Graphics/SVG/1.1/DTD/svg11.dtd">
<svg version="1.1" id="Layer_1" xmlns="http://www.w3.org/2000/svg" xmlns:xlink="http://www.w3.org/1999/xlink" x="0px" y="0px"
	 width="500px" height="500px" viewBox="0 0 500 500" enable-background="new 0 0 500 500" xml:space="preserve">
<g>
	<path fill="#010101" d="M186.429,311.572l12.386-6.687c5.048-2.726,6.778-8.763,3.863-13.485l-23.468-38.012
		c-1.955-3.167-5.503-4.938-9.15-4.938c-1.792,0-3.606,0.426-5.267,1.325l-12.386,6.687c-1.701,0.918-3.505,1.337-5.262,1.337
		c-5.515,0-10.571-4.123-10.571-9.886v-13.374c0-5.451-4.726-9.872-10.557-9.872H79.078c-5.829,0-10.556,4.419-10.556,9.872v13.374
		c0,5.763-5.059,9.886-10.571,9.886c-1.757,0-3.561-0.419-5.262-1.337l-12.386-6.687c-1.662-0.897-3.478-1.323-5.268-1.325
		c-3.649,0-7.195,1.771-9.15,4.938L2.417,291.4c-2.915,4.723-1.185,10.76,3.863,13.485l12.386,6.687
		c7.037,3.8,7.037,13.299,0,17.098L6.28,335.357c-5.049,2.725-6.778,8.762-3.863,13.484l23.468,38.012
		c1.955,3.166,5.503,4.938,9.15,4.938c1.791,0,3.606-0.428,5.268-1.324l12.386-6.688c1.701-0.918,3.505-1.336,5.262-1.336
		c5.514,0,10.571,4.122,10.571,9.885v13.374c0,5.451,4.725,9.872,10.556,9.872h46.936c5.83,0,10.557-4.419,10.557-9.872v-13.374
		c0-5.763,5.058-9.885,10.57-9.885c1.757,0,3.561,0.418,5.262,1.336l12.386,6.688c1.662,0.896,3.478,1.324,5.268,1.324
		c3.648,0,7.195-1.771,9.15-4.938l23.468-38.012c2.915-4.723,1.185-10.76-3.863-13.484l-12.386-6.688
		C179.392,324.871,179.392,315.371,186.429,311.572z M102.548,349.407c-17.297,0-31.317-13.112-31.317-29.286
		c0-16.175,14.022-29.286,31.317-29.286c17.295,0,31.317,13.112,31.317,29.286S119.843,349.407,102.548,349.407L102.548,349.407z"/>
	<path fill="#010101" d="M178.286,39.83c-5.663-5.293-14.839-5.293-20.503,0c-5.662,5.296-5.662,13.879,0,19.173l25.905,24.224
		C88.476,87.636,11.403,157.574,3.063,245.695l2.143-3.471c6.131-9.933,17.563-16.103,29.83-16.101c0.259,0,0.517,0.021,0.776,0.028
		c16.335-63.503,75.547-111.534,147.287-115.705l-25.315,23.671c-5.662,5.295-5.662,13.879,0,19.173
		c2.832,2.646,6.54,3.97,10.25,3.97s7.421-1.323,10.25-3.97l50.415-47.145c2.718-2.544,4.245-5.992,4.245-9.586
		c0-3.596-1.526-7.044-4.245-9.586L178.286,39.83z"/>
	<path fill="#010101" d="M361.478,109.187c32.19,0,58.378-24.49,58.378-54.593C419.855,24.49,393.668,0,361.478,0
		S303.1,24.49,303.1,54.593C303.1,84.695,329.287,109.187,361.478,109.187L361.478,109.187z"/>
	<path fill="#010101" d="M475.201,256.357v-75.051c0-20.774-14.276-39.197-35.388-45.664l-0.097-0.03l-30.879-4.781
		c-2.628-0.756-5.437,0.545-6.381,2.97l-35.037,89.897c-2.021,5.187-9.865,5.187-11.885,0l-35.037-89.897
		c-0.764-1.958-2.739-3.185-4.857-3.185c-0.502,0-32.401,4.99-32.401,4.99c-21.285,6.633-35.507,25.084-35.507,45.95v74.802
		c0,11.21,9.718,20.296,21.703,20.296h184.06C465.485,276.653,475.201,267.565,475.201,256.357z"/>
	<path fill="#010101" d="M501,274.298c-1.211,15.514-14.821,25.014-31.414,26.138c-12.714,68.057-74.183,120.606-149.383,124.979
		l25.313-23.672c5.662-5.296,5.662-13.879,0-19.174c-5.663-5.292-14.839-5.292-20.502,0l-50.413,47.146
		c-5.662,5.296-5.662,13.879,0,19.174l50.413,47.143c2.832,2.646,6.54,3.97,10.251,3.97c3.71,0,7.42-1.323,10.25-3.97
		c5.661-5.295,5.661-13.879,0-19.174l-25.904-24.224C420.475,447.963,501,369.76,501,274.298L501,274.298z"/>
	<path fill="#010101" d="M374.201,129.807c-1.345-1.371-3.313-2.061-5.303-2.061h-14.844c-1.989,0-3.956,0.69-5.304,2.061
		c-2.082,2.123-2.385,5.188-0.906,7.584l7.934,11.185l-3.715,29.301l7.315,18.195c0.712,1.83,3.479,1.83,4.193,0l7.315-18.195
		l-3.714-29.301l7.933-11.185C376.587,134.995,376.285,131.929,374.201,129.807z"/>
</g>
</svg>
