<?xml version="1.0" encoding="utf-8"?>
<!-- Generator: Adobe Illustrator 16.0.0, SVG Export Plug-In . SVG Version: 6.00 Build 0)  -->
<!DOCTYPE svg PUBLIC "-//W3C//DTD SVG 1.1//EN" "http://www.w3.org/Graphics/SVG/1.1/DTD/svg11.dtd">
<svg version="1.1" id="Layer_1" xmlns="http://www.w3.org/2000/svg" xmlns:xlink="http://www.w3.org/1999/xlink" x="0px" y="0px"
	 width="500px" height="500px" viewBox="0 0 500 500" enable-background="new 0 0 500 500" xml:space="preserve">
<g id="XMLID_241_">
	<path id="XMLID_244_" fill="#010101" d="M398.214,442l0.111,32.67c0.048,14.074,13.761,25.33,30.649,25.33c0.029,0,0.061,0,0.09,0
		c16.929-0.04,30.613-11.377,30.565-25.475L459.519,442H398.214L398.214,442z"/>
	<path id="XMLID_1025_" fill="#010101" d="M323.148,435.345l-0.003,39.188C323.145,488.632,336.866,500,353.796,500
		c0.001,0,0.001,0,0.002,0c16.927,0,30.652-11.303,30.652-25.4l0.003-32.6h-39.019C337.01,442,329.261,439.427,323.148,435.345z"/>
	<ellipse id="XMLID_1026_" fill="#010101" cx="68.557" cy="44.088" rx="52.94" ry="44.088"/>
	<path id="XMLID_1027_" fill="#010101" d="M200.495,179.537l-80.209-7.837L67.83,128.294l49.79,21.724l18.38,1.792v-18.87
		c0-16.448-16.081-29.94-35.833-29.94H36.392c-19.751,0-35.763,13.414-35.763,29.862l-0.629,341.5
		C-0.049,488.459,13.635,499.96,30.564,500c0.03,0,0.059,0,0.089,0c16.887,0,30.603-11.381,30.65-25.455l0.641-188.6
		c0-0.023-0.001,0.055-0.001,0.055h13.22l0.017,188.602c0.001,14.098,13.727,25.464,30.655,25.463s30.651-11.463,30.65-25.561
		c-0.021-227.069-0.556-237.002-0.556-237.002l-33.339-3.265c-10.196-0.997-22.722-0.798-30.057-12.08l-40.713-63.679l58.717,48.587
		c4.057,3.356,9.349,5.482,15.029,6.037l88.976,8.693c14.025,1.368,26.703-6.992,28.345-18.65
		C224.532,191.475,214.506,180.905,200.495,179.537z"/>
	<ellipse id="XMLID_1028_" fill="#010101" cx="391.072" cy="44.088" rx="52.94" ry="44.088"/>
	<path id="XMLID_1031_" fill="#010101" d="M486.458,327H460c0-14,0-16.103,0-31.805c0-5.994-6.151-11.195-13.349-11.195h-4.057
		c1.457-7,11.211-57.964,12.766-66.028c0.679-3.517,0.285-7.032-1.141-10.389l-30.246-71.081l1.815,2.268L459,179.903V132.94
		c0-16.448-16.011-29.94-35.762-29.94h-63.775C339.712,103,324,116.492,324,132.94v7.568l-82.025,38.977
		c5.277,7.642,7.686,16.709,6.357,26.137c-1.691,12.012-9.283,22.256-20.031,29.005c1.251-0.394,2.465-0.864,3.665-1.434
		l91.743-43.679l-0.572,125.27c10.755-7.174,21.863-6.521,26.863-6.521v-13.066c0-11.48,8.098-21.73,20.229-26.506l11.655-60.372
		l-4.66-44.287l-1.411-13.28l28.07,65.834C402.53,223.596,392.364,276,390.853,284h-5.613c-7.197,0-13.239,5.201-13.239,11.195
		c0,15.568,0,17.805,0,31.805h-26.565c-7.48,0-13.435,4.761-13.435,10.989v74.032c0,6.229,5.956,10.979,13.435,10.979h141.021
		c7.48,0,13.544-4.75,13.544-10.979v-74.032C500,331.761,493.937,327,486.458,327z M411.312,312.274
		c1.373,0.184,2.736,0.208,4.082,0.208c5.741,0,11.149-1.482,15.507-4.482h3.1v19h-36v-19h1.776
		C403.04,310,406.958,311.693,411.312,312.274z"/>
</g>
</svg>
